<svg viewBox="0 0 98 72.57" xmlns="http://www.w3.org/2000/svg"><g fill="#fff"><text font-family="HiraginoSans-W6-83pv-RKSJ-H, 'Hiragino Sans'" font-size="14" transform="translate(21 50.31)"><tspan x="0" y="0">車検費用</tspan><tspan x="-21" y="16">シミュレーター</tspan></text><path d="m44.65.37-8.52 8.52v21.48h25.74v-30zm-.12 2.91v5.48h-5.48zm15.38 25.12h-21.8v-17.9h8.16v-8.17h13.64v26.06z"/><path d="m43.22 15.4h11.56v2h-11.56z"/><path d="m43.22 19.54h11.56v2h-11.56z"/><path d="m48 15.4h2v11h-2z"/><path d="m48.74 15.4-3-3.56h-2.52l3 3.56z"/><path d="m49.26 15.4 3-3.56h2.52l-3 3.56z"/></g><path d="m28.88 0h31.28v69.01h-31.28z" fill="none" transform="matrix(-1 0 0 -1 89.04 69.01)"/></svg>