<svg viewBox="0 0 89.61 69.01" xmlns="http://www.w3.org/2000/svg"><g fill="#fff"><text font-family="HiraginoSans-W6-83pv-RKSJ-H, 'Hiragino Sans'" font-size="14" transform="translate(0 58.31)"><tspan x="0" y="0">車検Web予約</tspan></text><path d="m39.38 8.72c.83 0 1.5-.67 1.5-1.5v-2.36c0-.83-.67-1.5-1.5-1.5s-1.5.67-1.5 1.5v2.36c0 .83.67 1.5 1.5 1.5z"/><path d="m50.42 8.72c.83 0 1.5-.67 1.5-1.5v-2.36c0-.83-.67-1.5-1.5-1.5s-1.5.67-1.5 1.5v2.36c0 .83.67 1.5 1.5 1.5z"/><path d="m55.6 5.5h-2.37v1.72c0 1.55-1.26 2.81-2.81 2.81s-2.81-1.26-2.81-2.81v-1.72h-5.41v1.72c0 1.55-1.26 2.81-2.81 2.81s-2.81-1.26-2.81-2.81v-1.72h-2.56c-2.32 0-4.2 1.88-4.2 4.2v19.96c0 2.32 1.88 4.2 4.2 4.2h21.59c2.32 0 4.2-1.88 4.2-4.2v-19.95c0-2.32-1.88-4.2-4.2-4.2zm2.16 24.16c0 1.19-.97 2.16-2.16 2.16h-21.59c-1.19 0-2.16-.97-2.16-2.16v-17.29h25.91v17.3z"/><path d="m39.98 26.16h3.79v3.79h-3.79z"/><path d="m39.98 20.29h3.79v3.79h-3.79z"/><path d="m34.11 26.16h3.79v3.79h-3.79z"/><path d="m34.11 20.29h3.79v3.79h-3.79z"/><path d="m51.72 14.42h3.79v3.79h-3.79z"/><path d="m45.85 14.42h3.79v3.79h-3.79z"/><path d="m45.85 20.29h3.79v3.79h-3.79z"/><path d="m51.72 20.29h3.79v3.79h-3.79z"/><path d="m45.85 26.16h3.79v3.79h-3.79z"/><path d="m39.98 14.42h3.79v3.79h-3.79z"/></g><path d="m43.77 0h31.28v69.01h-31.28z" fill="none" transform="matrix(-1 0 0 -1 118.81 69.01)"/></svg>