<svg xmlns="http://www.w3.org/2000/svg" width="76.813" height="43.485" viewBox="0 0 76.813 43.485"><defs><style>.cls-1{font-size:12px;font-family:HiraginoSans-W6-83pv-RKSJ-H, Hiragino Sans;}.cls-1,.cls-2{fill:#fff;}</style></defs><g id="レイヤー_2" data-name="レイヤー 2"><g id="ヘッダー_フッター" data-name="ヘッダー/フッター"><text class="cls-1" transform="translate(0 38.12)">車検Web予約</text><path class="cls-2" d="M34.847,3.507a.981.981,0,0,0,.981-.981V.981a.982.982,0,0,0-1.963,0V2.526A.982.982,0,0,0,34.847,3.507Z"/><path class="cls-2" d="M42.085,3.507a.981.981,0,0,0,.981-.981V.981a.982.982,0,0,0-1.963,0V2.526A.982.982,0,0,0,42.085,3.507Z"/><path class="cls-2" d="M45.486,1.4H43.928V2.526a1.844,1.844,0,1,1-3.687,0V1.4h-3.55V2.526a1.844,1.844,0,0,1-3.688,0V1.4H31.326a2.756,2.756,0,0,0-2.757,2.756V17.243A2.757,2.757,0,0,0,31.326,20h14.16a2.757,2.757,0,0,0,2.756-2.757V4.155A2.756,2.756,0,0,0,45.486,1.4ZM46.9,17.243a1.417,1.417,0,0,1-1.415,1.415H31.326a1.417,1.417,0,0,1-1.416-1.415V5.9H46.9Z"/><rect class="cls-2" x="35.239" y="14.942" width="2.484" height="2.484"/><rect class="cls-2" x="35.239" y="11.092" width="2.484" height="2.484"/><rect class="cls-2" x="31.39" y="14.942" width="2.484" height="2.484"/><rect class="cls-2" x="31.39" y="11.092" width="2.484" height="2.484"/><rect class="cls-2" x="42.938" y="7.243" width="2.484" height="2.484"/><rect class="cls-2" x="39.089" y="7.243" width="2.484" height="2.484"/><rect class="cls-2" x="39.089" y="11.092" width="2.484" height="2.484"/><rect class="cls-2" x="42.938" y="11.092" width="2.484" height="2.484"/><rect class="cls-2" x="39.089" y="14.942" width="2.484" height="2.484"/><rect class="cls-2" x="35.239" y="7.243" width="2.484" height="2.484"/></g></g></svg>