<svg viewBox="0 0 84 69.01" xmlns="http://www.w3.org/2000/svg"><text fill="#fff" font-family="HiraginoSans-W6-83pv-RKSJ-H, 'Hiragino Sans'" font-size="14" transform="translate(0 58.31)"><tspan x="0" y="0">お問い合わせ</tspan></text><path d="m58.48 9.32c-.15-.75-.48-1.44-.95-2.01-.1-.12-.2-.23-.31-.35-.83-.83-1.98-1.35-3.25-1.35h-23.94c-1.27 0-2.42.52-3.25 1.35-.11.11-.21.22-.31.35-.47.57-.8 1.26-.94 2.01-.06.29-.09.59-.09.89v16.81c0 .64.14 1.26.38 1.82.23.53.56 1.02.97 1.42.1.1.21.2.32.29.79.66 1.82 1.06 2.93 1.06h23.94c1.11 0 2.14-.4 2.93-1.06.11-.09.21-.18.32-.29.41-.41.74-.89.97-1.42.24-.56.38-1.18.38-1.82v-16.8c0-.3-.03-.6-.09-.89zm-30.03-.69c.41-.41.96-.66 1.59-.66h23.94c.62 0 1.18.25 1.59.66.07.07.14.15.2.24l-12.55 10.93c-.35.3-.77.45-1.21.45s-.86-.15-1.21-.45l-12.54-10.94c.06-.08.12-.16.2-.23zm-.66 18.4v-15.73l9.08 7.92-9.07 7.91s0-.06 0-.1zm26.18 2.24h-23.94c-.41 0-.79-.11-1.11-.29l9.57-8.34.89.78c.75.65 1.68.98 2.61.98s1.87-.33 2.62-.98l.89-.78 9.57 8.34c-.32.19-.71.29-1.11.29zm2.24-2.24s0 .07 0 .1l-9.07-7.91 9.08-7.92v15.73z" fill="#fff"/><path d="m21.23 0h31.28v69.01h-31.28z" fill="none" transform="matrix(-1 0 0 -1 73.73 69.01)"/></svg>