<svg xmlns="http://www.w3.org/2000/svg" width="72" height="43.977" viewBox="0 0 72 43.977"><defs><style>.cls-1{font-size:12px;font-family:HiraginoSans-W6-83pv-RKSJ-H, Hiragino Sans;}.cls-1,.cls-2{fill:#fff;}</style></defs><g id="レイヤー_2" data-name="レイヤー 2"><g id="ヘッダー_フッター" data-name="ヘッダー/フッター"><text class="cls-1" transform="translate(0 38.613)">お問い合わせ</text><path class="cls-2" d="M46.806,2.427a3.01,3.01,0,0,0-.622-1.317,2.762,2.762,0,0,0-.2-.227A3.006,3.006,0,0,0,43.848,0h-15.7a3.011,3.011,0,0,0-2.13.883,2.762,2.762,0,0,0-.2.227A2.973,2.973,0,0,0,25.2,2.427a2.927,2.927,0,0,0-.059.586V14.037a3,3,0,0,0,.25,1.2,2.953,2.953,0,0,0,.633.933c.068.067.135.129.208.191a3.007,3.007,0,0,0,1.922.692h15.7a2.988,2.988,0,0,0,1.923-.7,2.633,2.633,0,0,0,.208-.188,3.013,3.013,0,0,0,.636-.933v0a2.98,2.98,0,0,0,.247-1.194V3.013A3.163,3.163,0,0,0,46.806,2.427ZM27.112,1.973a1.456,1.456,0,0,1,1.04-.431h15.7a1.448,1.448,0,0,1,1.04.431,1.288,1.288,0,0,1,.132.155L36.794,9.3a1.209,1.209,0,0,1-1.587,0L26.984,2.124A1.126,1.126,0,0,1,27.112,1.973Zm-.431,12.064V3.72l5.953,5.193L26.684,14.1A.429.429,0,0,1,26.681,14.037Zm17.167,1.471h-15.7a1.452,1.452,0,0,1-.728-.193L33.7,9.844l.586.51a2.609,2.609,0,0,0,3.428,0l.586-.51,6.275,5.471A1.453,1.453,0,0,1,43.848,15.508Zm1.472-1.471a.429.429,0,0,1,0,.064l-5.95-5.185L45.32,3.722Z"/></g></g></svg>